Coordinates
version=1
nRows=65
nColumns=12
inDegrees=yes

Units are S.I. units (second, meters, Newtons, ...)
Angles are in degrees

endheader
time	SC_y	SC_z	SC_x	AC_y	AC_z	AC_x	GH_y	GH_z	GH_yy	EL_x	PS_y
       0.0               -46.5          31.68          7.627          51.66         -15.34         -7.915          61.57          25.38         -52.45          100.7          86.87
  0.001317               -46.5          31.67          7.633          51.66         -15.34         -7.911          61.55          25.38         -52.43          100.7          86.88
  0.002633               -46.5          31.67           7.64          51.66         -15.33         -7.908          61.52          25.39          -52.4          100.7          86.89
   0.00395               -46.5          31.67          7.646          51.66         -15.33         -7.904           61.5          25.39         -52.37          100.7           86.9
  0.005266               -46.5          31.66          7.654          51.66         -15.33           -7.9          61.47          25.39         -52.34          100.7           86.9
  0.006583               -46.5          31.66          7.662          51.67         -15.33         -7.896          61.44          25.39         -52.31          100.7          86.91
  0.007899               -46.5          31.66           7.67          51.67         -15.32         -7.891           61.4           25.4         -52.28          100.7          86.93
  0.009216              -46.49          31.65          7.679          51.67         -15.32         -7.886          61.37           25.4         -52.24          100.7          86.94
   0.01053              -46.49          31.65          7.688          51.68         -15.32         -7.881          61.33           25.4          -52.2          100.7          86.95
   0.01185              -46.49          31.64          7.698          51.68         -15.31         -7.875          61.29          25.41         -52.16          100.8          86.96
   0.01317              -46.49          31.64          7.709          51.68         -15.31         -7.869          61.24          25.41         -52.12          100.8          86.98
   0.01448              -46.49          31.63          7.721          51.69          -15.3         -7.863           61.2          25.41         -52.07          100.8          86.99
    0.0158              -46.48          31.63          7.734          51.69          -15.3         -7.856          61.15          25.42         -52.01          100.8          87.01
   0.01712              -46.48          31.62          7.748           51.7         -15.29         -7.848          61.09          25.42         -51.96          100.8          87.02
   0.01843              -46.48          31.61          7.762           51.7         -15.29          -7.84          61.03          25.43          -51.9          100.8          87.04
   0.01975              -46.47          31.61          7.779          51.71         -15.28         -7.831          60.97          25.43         -51.83          100.8          87.06
   0.02107              -46.47           31.6          7.796          51.71         -15.27         -7.821           60.9          25.44         -51.76          100.8          87.09
   0.02238              -46.47          31.59          7.815          51.72         -15.27         -7.811          60.82          25.45         -51.68          100.8          87.11
    0.0237              -46.46          31.58          7.836          51.73         -15.26         -7.799          60.74          25.45          -51.6          100.8          87.14
   0.02501              -46.46          31.57          7.859          51.73         -15.25         -7.787          60.65          25.46          -51.5          100.8          87.17
   0.02633              -46.45          31.56          7.884          51.74         -15.24         -7.773          60.55          25.47          -51.4          100.8           87.2
   0.02765              -46.45          31.55          7.912          51.75         -15.23         -7.758          60.44          25.48         -51.29          100.8          87.23
   0.02896              -46.44          31.53          7.942          51.76         -15.22         -7.741          60.32          25.49         -51.16          100.8          87.27
   0.03028              -46.44          31.52          7.976          51.77         -15.21         -7.722          60.18           25.5         -51.02          100.9          87.32
    0.0316              -46.43           31.5          8.013          51.79         -15.19         -7.701          60.03          25.51         -50.87          100.9          87.36
   0.03291              -46.42          31.48          8.055           51.8         -15.18         -7.678          59.86          25.53          -50.7          100.9          87.42
   0.03423              -46.41          31.46          8.102          51.82         -15.16         -7.652          59.68          25.54         -50.51          100.9          87.48
   0.03555               -46.4          31.43          8.155          51.83         -15.14         -7.623          59.47          25.56         -50.29          100.9          87.54
   0.03686              -46.39          31.41          8.214          51.85         -15.12          -7.59          59.23          25.58         -50.05          100.9          87.62
   0.03818              -46.37          31.38          8.282          51.88         -15.09         -7.553          58.96           25.6         -49.77          101.0          87.71
    0.0395              -46.36          31.34          8.359           51.9         -15.06          -7.51          58.65          25.63         -49.45          101.0           87.8
   0.04081              -46.34           31.3          8.448          51.93         -15.03         -7.461          58.29          25.66         -49.09          101.0          87.92
   0.04213              -46.32          31.25           8.55          51.97         -14.99         -7.405          57.88          25.69         -48.67          101.1          88.05
   0.04345               -46.3           31.2          8.669          52.01         -14.94         -7.339          57.41          25.73         -48.19          101.1           88.2
   0.04476              -46.27          31.14          8.808          52.05         -14.89         -7.262          56.85          25.78         -47.62          101.2          88.38
   0.04608              -46.24          31.06          8.972          52.11         -14.83         -7.172           56.2          25.83         -46.94          101.2          88.59
    0.0474               -46.2          30.97          9.167          52.17         -14.75         -7.064          55.42           25.9         -46.15          101.3          88.84
   0.04871              -46.15          30.86          9.401          52.25         -14.67         -6.935          54.49          25.98         -45.19          101.4          89.13
   0.05003              -46.09          30.73          9.684          52.35         -14.56         -6.779          53.36          26.07         -44.03          101.5          89.49
   0.05135              -46.02          30.58          10.03          52.46         -14.43         -6.588          51.98          26.19         -42.62          101.6          89.93
   0.05266              -45.94          30.38          10.46           52.6         -14.27         -6.353          50.27          26.33         -40.87          101.8          90.48
   0.05398              -45.83          30.14          10.99          52.78         -14.06          -6.06          48.15          26.51          -38.7          102.0          91.16
    0.0553               -45.7          29.83          11.66          53.01         -13.81          -5.69          45.47          26.73         -35.96          102.2          92.01
   0.05661              -45.53          29.44          12.51          53.29         -13.49          -5.22          42.07          27.02         -32.47          102.5           93.1
   0.05793              -45.31          28.94           13.6          53.66         -13.08         -4.619          37.72          27.38         -28.01          102.9          94.49
   0.05925              -45.03           28.3          14.99          54.13         -12.54         -3.847          32.13          27.85         -22.29          103.4          96.27
   0.06056              -44.67          27.48          16.78          54.72         -11.87         -2.861           25.0          28.45         -14.98          104.1          98.55
   0.06188              -44.22          26.46          19.03          55.48         -11.02         -1.621          16.02           29.2         -5.783          104.9          101.4
    0.0632              -43.68           25.2          21.76          56.39         -9.979        -0.1102          5.089          30.12           5.42          105.9          104.9
   0.06451              -43.04          23.75          24.93          57.46         -8.776          1.641         -7.586          31.18          18.41          107.1          108.9
   0.06583              -42.36          22.18          28.37          58.61         -7.474          3.537         -21.31          32.33          32.47          108.3          113.3
   0.06714              -41.67           20.6           31.8          59.76         -6.171          5.433         -35.03          33.48          46.53          109.6          117.7
   0.06846              -41.03          19.15          34.97          60.82         -4.969          7.184         -47.71          34.54          59.51          110.7          121.8
   0.06978              -40.49           17.9          37.71          61.74         -3.931          8.695         -58.64          35.46          70.71          111.7          125.2
   0.07109              -40.04          16.87          39.96          62.49          -3.08          9.935         -67.61          36.21          79.91          112.6          128.1
   0.07241              -39.68          16.05          41.74          63.09         -2.402          10.92         -74.75          36.81          87.22          113.2          130.4
   0.07373               -39.4          15.41          43.14          63.56         -1.872          11.69         -80.34          37.28          92.94          113.7          132.2
   0.07504              -39.18          14.91          44.23          63.92         -1.459          12.29         -84.69          37.64           97.4          114.1          133.6
   0.07636              -39.01          14.52          45.08          64.21         -1.136          12.76         -88.09          37.93          100.9          114.4          134.6
   0.07768              -38.88          14.22          45.75          64.43        -0.8826          13.13         -90.77          38.15          103.6          114.7          135.5
   0.07899              -38.77          13.97          46.28          64.61         -0.681          13.43         -92.89          38.33          105.8          114.9          136.2
   0.08031              -38.69          13.78          46.71          64.75        -0.5194          13.66         -94.59          38.47          107.5          115.0          136.7
   0.08163              -38.62          13.62          47.05          64.87        -0.3885          13.85         -95.97          38.59          109.0          115.2          137.2
   0.08294              -38.56          13.49          47.34          64.96        -0.2813          14.01          -97.1          38.68          110.1          115.3          137.5
   0.08426              -38.51          13.38          47.57          65.04        -0.1927          14.14         -98.04          38.76          111.1          115.3          137.8
